<svg width="14" height="14" viewBox="0 0 14 14" fill="none" xmlns="http://www.w3.org/2000/svg">
<path id="Vector" d="M0 2.52778C0 1.85737 0.266319 1.21442 0.740369 0.740369C1.21442 0.266319 1.85737 0 2.52778 0H11.4722C12.1426 0 12.7856 0.266319 13.2596 0.740369C13.7337 1.21442 14 1.85737 14 2.52778V11.4722C14 12.1426 13.7337 12.7856 13.2596 13.2596C12.7856 13.7337 12.1426 14 11.4722 14H2.52778C1.85737 14 1.21442 13.7337 0.740369 13.2596C0.266319 12.7856 0 12.1426 0 11.4722V2.52778ZM7.58333 3.69444C7.58333 3.53974 7.52188 3.39136 7.41248 3.28197C7.30308 3.17257 7.15471 3.11111 7 3.11111C6.84529 3.11111 6.69692 3.17257 6.58752 3.28197C6.47813 3.39136 6.41667 3.53974 6.41667 3.69444V6.41667H3.69444C3.53974 6.41667 3.39136 6.47813 3.28197 6.58752C3.17257 6.69692 3.11111 6.84529 3.11111 7C3.11111 7.15471 3.17257 7.30308 3.28197 7.41248C3.39136 7.52188 3.53974 7.58333 3.69444 7.58333H6.41667V10.3056C6.41667 10.4603 6.47813 10.6086 6.58752 10.718C6.69692 10.8274 6.84529 10.8889 7 10.8889C7.15471 10.8889 7.30308 10.8274 7.41248 10.718C7.52188 10.6086 7.58333 10.4603 7.58333 10.3056V7.58333H10.3056C10.4603 7.58333 10.6086 7.52188 10.718 7.41248C10.8274 7.30308 10.8889 7.15471 10.8889 7C10.8889 6.84529 10.8274 6.69692 10.718 6.58752C10.6086 6.47813 10.4603 6.41667 10.3056 6.41667H7.58333V3.69444Z" fill="#333333"/>
</svg>
